<svg xmlns="http://www.w3.org/2000/svg" viewBox="0 0 512 512">
  <rect width="512" height="512" fill="#08081a"/>
  <line x1="0" y1="256" x2="512" y2="256" stroke="rgba(0,245,255,0.06)" stroke-width="1"/>
  <line x1="256" y1="0" x2="256" y2="512" stroke="rgba(0,245,255,0.06)" stroke-width="1"/>
  <rect x="180" y="130" width="56" height="56" rx="8" fill="#b400ff" opacity="0.95"/>
  <rect x="236" y="130" width="56" height="56" rx="8" fill="#b400ff" opacity="0.95"/>
  <rect x="292" y="130" width="56" height="56" rx="8" fill="#b400ff" opacity="0.95"/>
  <rect x="236" y="186" width="56" height="56" rx="8" fill="#b400ff" opacity="0.95"/>
  <rect x="184" y="134" width="48" height="14" rx="5" fill="rgba(255,255,255,0.2)"/>
  <rect x="240" y="134" width="48" height="14" rx="5" fill="rgba(255,255,255,0.2)"/>
  <rect x="296" y="134" width="48" height="14" rx="5" fill="rgba(255,255,255,0.2)"/>
  <rect x="68"  y="298" width="56" height="56" rx="8" fill="#00f5ff" opacity="0.95"/>
  <rect x="124" y="298" width="56" height="56" rx="8" fill="#00f5ff" opacity="0.95"/>
  <rect x="180" y="298" width="56" height="56" rx="8" fill="#00f5ff" opacity="0.95"/>
  <rect x="236" y="298" width="56" height="56" rx="8" fill="#00f5ff" opacity="0.95"/>
  <rect x="72"  y="302" width="48" height="14" rx="5" fill="rgba(255,255,255,0.2)"/>
  <rect x="128" y="302" width="48" height="14" rx="5" fill="rgba(255,255,255,0.2)"/>
  <rect x="184" y="302" width="48" height="14" rx="5" fill="rgba(255,255,255,0.2)"/>
  <rect x="240" y="302" width="48" height="14" rx="5" fill="rgba(255,255,255,0.2)"/>
  <rect x="236" y="354" width="56" height="56" rx="8" fill="#00ff88" opacity="0.9"/>
  <rect x="292" y="354" width="56" height="56" rx="8" fill="#00ff88" opacity="0.9"/>
  <rect x="180" y="410" width="56" height="56" rx="8" fill="#00ff88" opacity="0.9"/>
  <rect x="236" y="410" width="56" height="56" rx="8" fill="#00ff88" opacity="0.9"/>
  <circle cx="256" cy="256" r="230" fill="none" stroke="#00f5ff" stroke-width="2" opacity="0.2"/>
  <circle cx="256" cy="256" r="240" fill="none" stroke="#b400ff" stroke-width="1" opacity="0.1"/>
</svg>
